<mxfile host="app.diagrams.net" modified="2021-06-11T07:07:46.303Z" agent="5.0 (Macintosh; Intel Mac OS X 10_13_6) AppleWebKit/537.36 (KHTML, like Gecko) Chrome/90.0.4430.212 Safari/537.36" etag="ChYo6Jk7mGDYXPdMfJpV" version="14.7.7" type="github">
  <diagram id="rLmRK7H-8Zh3lcYx4UbC" name="第 1 页">
    <mxGraphModel dx="1346" dy="1046" grid="1" gridSize="10" guides="1" tooltips="1" connect="1" arrows="1" fold="1" page="0" pageScale="1" pageWidth="827" pageHeight="1169" math="0" shadow="0">
      <root>
        <mxCell id="0" />
        <mxCell id="1" parent="0" />
        <mxCell id="4bEyxpbBNIZap9Eef66d-16" value="" style="rounded=0;whiteSpace=wrap;html=1;comic=1;fontFamily=Comic Sans MS;fontSize=16;fillColor=#d5e8d4;strokeColor=#82b366;" parent="1" vertex="1">
          <mxGeometry x="490" y="100" width="385.37" height="360" as="geometry" />
        </mxCell>
        <mxCell id="4bEyxpbBNIZap9Eef66d-15" value="" style="rounded=0;whiteSpace=wrap;html=1;comic=1;fontFamily=Comic Sans MS;fontSize=16;fillColor=#ffe6cc;strokeColor=#d79b00;" parent="1" vertex="1">
          <mxGeometry x="84.63" y="100" width="385.37" height="360" as="geometry" />
        </mxCell>
        <mxCell id="4bEyxpbBNIZap9Eef66d-18" value="" style="rounded=0;whiteSpace=wrap;html=1;dashed=1;fillColor=#f9f7ed;strokeColor=#36393d;" parent="1" vertex="1">
          <mxGeometry x="-120" y="-30" width="150" height="880" as="geometry" />
        </mxCell>
        <mxCell id="4bEyxpbBNIZap9Eef66d-19" value="" style="group" parent="1" vertex="1" connectable="0">
          <mxGeometry x="-105" y="521" width="120" height="250" as="geometry" />
        </mxCell>
        <mxCell id="4bEyxpbBNIZap9Eef66d-20" value="" style="rounded=0;whiteSpace=wrap;html=1;" parent="4bEyxpbBNIZap9Eef66d-19" vertex="1">
          <mxGeometry width="120" height="250" as="geometry" />
        </mxCell>
        <mxCell id="4bEyxpbBNIZap9Eef66d-21" value="测试支撑" style="text;html=1;strokeColor=none;fillColor=none;align=center;verticalAlign=middle;whiteSpace=wrap;rounded=0;" parent="4bEyxpbBNIZap9Eef66d-19" vertex="1">
          <mxGeometry x="25" y="10" width="70" height="20" as="geometry" />
        </mxCell>
        <mxCell id="4bEyxpbBNIZap9Eef66d-22" value="QA测试" style="rounded=0;whiteSpace=wrap;html=1;" parent="4bEyxpbBNIZap9Eef66d-19" vertex="1">
          <mxGeometry x="10" y="40" width="100" height="40" as="geometry" />
        </mxCell>
        <mxCell id="4bEyxpbBNIZap9Eef66d-23" value="云测平台" style="rounded=0;whiteSpace=wrap;html=1;" parent="4bEyxpbBNIZap9Eef66d-19" vertex="1">
          <mxGeometry x="10" y="90" width="100" height="40" as="geometry" />
        </mxCell>
        <mxCell id="4bEyxpbBNIZap9Eef66d-24" value="自动化脚本" style="rounded=0;whiteSpace=wrap;html=1;" parent="4bEyxpbBNIZap9Eef66d-19" vertex="1">
          <mxGeometry x="10" y="140" width="100" height="40" as="geometry" />
        </mxCell>
        <mxCell id="4bEyxpbBNIZap9Eef66d-25" value="性能测试" style="rounded=0;whiteSpace=wrap;html=1;" parent="4bEyxpbBNIZap9Eef66d-19" vertex="1">
          <mxGeometry x="10" y="190" width="100" height="40" as="geometry" />
        </mxCell>
        <mxCell id="4bEyxpbBNIZap9Eef66d-26" value="" style="group" parent="1" vertex="1" connectable="0">
          <mxGeometry x="-105" y="154.5" width="120" height="250" as="geometry" />
        </mxCell>
        <mxCell id="4bEyxpbBNIZap9Eef66d-27" value="" style="rounded=0;whiteSpace=wrap;html=1;" parent="4bEyxpbBNIZap9Eef66d-26" vertex="1">
          <mxGeometry width="120" height="250" as="geometry" />
        </mxCell>
        <mxCell id="4bEyxpbBNIZap9Eef66d-28" value="监控" style="text;html=1;strokeColor=none;fillColor=none;align=center;verticalAlign=middle;whiteSpace=wrap;rounded=0;" parent="4bEyxpbBNIZap9Eef66d-26" vertex="1">
          <mxGeometry x="25" y="10" width="70" height="20" as="geometry" />
        </mxCell>
        <mxCell id="4bEyxpbBNIZap9Eef66d-29" value="Sniffer" style="rounded=0;whiteSpace=wrap;html=1;" parent="4bEyxpbBNIZap9Eef66d-26" vertex="1">
          <mxGeometry x="10" y="40" width="100" height="40" as="geometry" />
        </mxCell>
        <mxCell id="4bEyxpbBNIZap9Eef66d-30" value="Raptor" style="rounded=0;whiteSpace=wrap;html=1;" parent="4bEyxpbBNIZap9Eef66d-26" vertex="1">
          <mxGeometry x="10" y="90" width="100" height="40" as="geometry" />
        </mxCell>
        <mxCell id="4bEyxpbBNIZap9Eef66d-31" value="Crash" style="rounded=0;whiteSpace=wrap;html=1;" parent="4bEyxpbBNIZap9Eef66d-26" vertex="1">
          <mxGeometry x="10" y="140" width="100" height="40" as="geometry" />
        </mxCell>
        <mxCell id="4bEyxpbBNIZap9Eef66d-32" value="灵犀" style="rounded=0;whiteSpace=wrap;html=1;" parent="4bEyxpbBNIZap9Eef66d-26" vertex="1">
          <mxGeometry x="10" y="190" width="100" height="40" as="geometry" />
        </mxCell>
        <mxCell id="4bEyxpbBNIZap9Eef66d-33" value="质量保证" style="text;html=1;strokeColor=none;fillColor=none;align=center;verticalAlign=middle;whiteSpace=wrap;rounded=0;dashed=1;" parent="1" vertex="1">
          <mxGeometry x="-75" y="-5.75" width="70" height="20" as="geometry" />
        </mxCell>
        <mxCell id="4bEyxpbBNIZap9Eef66d-34" value="" style="rounded=0;whiteSpace=wrap;html=1;dashed=1;fillColor=#ffcccc;strokeColor=#36393d;" parent="1" vertex="1">
          <mxGeometry x="930" y="-30" width="150" height="1012.75" as="geometry" />
        </mxCell>
        <mxCell id="4bEyxpbBNIZap9Eef66d-35" value="" style="group;fillColor=#f5f5f5;strokeColor=#666666;fontColor=#333333;" parent="1" vertex="1" connectable="0">
          <mxGeometry x="947" y="585.75" width="120" height="250" as="geometry" />
        </mxCell>
        <mxCell id="4bEyxpbBNIZap9Eef66d-36" value="" style="rounded=0;whiteSpace=wrap;html=1;" parent="4bEyxpbBNIZap9Eef66d-35" vertex="1">
          <mxGeometry width="120" height="250" as="geometry" />
        </mxCell>
        <mxCell id="4bEyxpbBNIZap9Eef66d-37" value="运维" style="text;html=1;strokeColor=none;fillColor=none;align=center;verticalAlign=middle;whiteSpace=wrap;rounded=0;" parent="4bEyxpbBNIZap9Eef66d-35" vertex="1">
          <mxGeometry x="25" y="10" width="70" height="20" as="geometry" />
        </mxCell>
        <mxCell id="4bEyxpbBNIZap9Eef66d-38" value="ABTest" style="rounded=0;whiteSpace=wrap;html=1;" parent="4bEyxpbBNIZap9Eef66d-35" vertex="1">
          <mxGeometry x="10" y="40" width="100" height="40" as="geometry" />
        </mxCell>
        <mxCell id="4bEyxpbBNIZap9Eef66d-39" value="Horn" style="rounded=0;whiteSpace=wrap;html=1;" parent="4bEyxpbBNIZap9Eef66d-35" vertex="1">
          <mxGeometry x="10" y="90" width="100" height="40" as="geometry" />
        </mxCell>
        <mxCell id="4bEyxpbBNIZap9Eef66d-40" value="Config" style="rounded=0;whiteSpace=wrap;html=1;" parent="4bEyxpbBNIZap9Eef66d-35" vertex="1">
          <mxGeometry x="10" y="140" width="100" height="40" as="geometry" />
        </mxCell>
        <mxCell id="4bEyxpbBNIZap9Eef66d-41" value="Logan" style="rounded=0;whiteSpace=wrap;html=1;" parent="4bEyxpbBNIZap9Eef66d-35" vertex="1">
          <mxGeometry x="10" y="190" width="100" height="40" as="geometry" />
        </mxCell>
        <mxCell id="4bEyxpbBNIZap9Eef66d-42" value="" style="rounded=0;whiteSpace=wrap;html=1;" parent="1" vertex="1">
          <mxGeometry x="937" y="170.25" width="120" height="137" as="geometry" />
        </mxCell>
        <mxCell id="4bEyxpbBNIZap9Eef66d-43" value="发布支撑" style="text;html=1;strokeColor=none;fillColor=none;align=center;verticalAlign=middle;whiteSpace=wrap;rounded=0;" parent="1" vertex="1">
          <mxGeometry x="977" y="177.25" width="50" height="20" as="geometry" />
        </mxCell>
        <mxCell id="4bEyxpbBNIZap9Eef66d-44" value="HPX平台发布" style="rounded=0;whiteSpace=wrap;html=1;" parent="1" vertex="1">
          <mxGeometry x="947" y="204.5" width="100" height="40" as="geometry" />
        </mxCell>
        <mxCell id="4bEyxpbBNIZap9Eef66d-45" value="Talos平台发布" style="rounded=0;whiteSpace=wrap;html=1;" parent="1" vertex="1">
          <mxGeometry x="947" y="253.75" width="100" height="40" as="geometry" />
        </mxCell>
        <mxCell id="4bEyxpbBNIZap9Eef66d-46" value="发布运维" style="text;html=1;strokeColor=none;fillColor=none;align=center;verticalAlign=middle;whiteSpace=wrap;rounded=0;dashed=1;" parent="1" vertex="1">
          <mxGeometry x="967" y="10" width="70" height="20" as="geometry" />
        </mxCell>
        <mxCell id="4bEyxpbBNIZap9Eef66d-47" value="地图APP壳工程" style="rounded=0;whiteSpace=wrap;html=1;comic=1;fontFamily=Comic Sans MS;fontSize=16;fillColor=#e1d5e7;strokeColor=#9673a6;" parent="1" vertex="1">
          <mxGeometry x="84.63" y="10" width="780" height="60" as="geometry" />
        </mxCell>
        <mxCell id="4bEyxpbBNIZap9Eef66d-49" value="C端" style="text;html=1;strokeColor=none;fillColor=none;align=center;verticalAlign=middle;whiteSpace=wrap;rounded=0;comic=1;fontFamily=Comic Sans MS;fontSize=16;" parent="1" vertex="1">
          <mxGeometry x="257" y="120" width="40" height="20" as="geometry" />
        </mxCell>
        <mxCell id="4bEyxpbBNIZap9Eef66d-50" value="导航" style="text;html=1;strokeColor=none;fillColor=none;align=center;verticalAlign=middle;whiteSpace=wrap;rounded=0;comic=1;fontFamily=Comic Sans MS;fontSize=16;" parent="1" vertex="1">
          <mxGeometry x="662.6800000000001" y="120" width="40" height="20" as="geometry" />
        </mxCell>
        <mxCell id="LvNqyNUecXNwjpv3FJKz-23" value="" style="rounded=0;whiteSpace=wrap;html=1;comic=1;fontFamily=Comic Sans MS;fontSize=16;fillColor=#f5f5f5;strokeColor=#666666;fontColor=#333333;" vertex="1" parent="1">
          <mxGeometry x="83.63" y="490" width="745.37" height="361" as="geometry" />
        </mxCell>
        <mxCell id="LvNqyNUecXNwjpv3FJKz-24" value="地图" style="rounded=0;whiteSpace=wrap;html=1;comic=1;fillColor=#dae8fc;strokeColor=#6c8ebf;fontSize=16;fontFamily=Comic Sans MS;" vertex="1" parent="1">
          <mxGeometry x="117" y="521" width="120" height="60" as="geometry" />
        </mxCell>
        <mxCell id="LvNqyNUecXNwjpv3FJKz-26" value="定位" style="rounded=0;whiteSpace=wrap;html=1;comic=1;fillColor=#dae8fc;strokeColor=#6c8ebf;fontSize=16;fontFamily=Comic Sans MS;" vertex="1" parent="1">
          <mxGeometry x="254" y="521" width="120" height="60" as="geometry" />
        </mxCell>
        <mxCell id="LvNqyNUecXNwjpv3FJKz-27" value="灵犀" style="rounded=0;whiteSpace=wrap;html=1;comic=1;fillColor=#dae8fc;strokeColor=#6c8ebf;fontSize=16;fontFamily=Comic Sans MS;" vertex="1" parent="1">
          <mxGeometry x="394" y="521" width="120" height="60" as="geometry" />
        </mxCell>
        <mxCell id="LvNqyNUecXNwjpv3FJKz-28" value="Logan" style="rounded=0;whiteSpace=wrap;html=1;comic=1;fillColor=#dae8fc;strokeColor=#6c8ebf;fontSize=16;fontFamily=Comic Sans MS;" vertex="1" parent="1">
          <mxGeometry x="534" y="521" width="120" height="60" as="geometry" />
        </mxCell>
        <mxCell id="LvNqyNUecXNwjpv3FJKz-29" value="Horn" style="rounded=0;whiteSpace=wrap;html=1;comic=1;fillColor=#dae8fc;strokeColor=#6c8ebf;fontSize=16;fontFamily=Comic Sans MS;" vertex="1" parent="1">
          <mxGeometry x="674" y="521" width="120" height="60" as="geometry" />
        </mxCell>
        <mxCell id="LvNqyNUecXNwjpv3FJKz-30" value="Okhttp" style="rounded=0;whiteSpace=wrap;html=1;comic=1;fillColor=#dae8fc;strokeColor=#6c8ebf;fontSize=16;fontFamily=Comic Sans MS;" vertex="1" parent="1">
          <mxGeometry x="117" y="599" width="120" height="60" as="geometry" />
        </mxCell>
        <mxCell id="LvNqyNUecXNwjpv3FJKz-31" value="CIP" style="rounded=0;whiteSpace=wrap;html=1;comic=1;fillColor=#dae8fc;strokeColor=#6c8ebf;fontSize=16;fontFamily=Comic Sans MS;" vertex="1" parent="1">
          <mxGeometry x="257" y="599" width="120" height="60" as="geometry" />
        </mxCell>
        <mxCell id="LvNqyNUecXNwjpv3FJKz-32" value="UUID" style="rounded=0;whiteSpace=wrap;html=1;comic=1;fillColor=#dae8fc;strokeColor=#6c8ebf;fontSize=16;fontFamily=Comic Sans MS;" vertex="1" parent="1">
          <mxGeometry x="396.32" y="601" width="120" height="60" as="geometry" />
        </mxCell>
        <mxCell id="LvNqyNUecXNwjpv3FJKz-33" value="ABTest" style="rounded=0;whiteSpace=wrap;html=1;comic=1;fillColor=#dae8fc;strokeColor=#6c8ebf;fontSize=16;fontFamily=Comic Sans MS;" vertex="1" parent="1">
          <mxGeometry x="534" y="601" width="120" height="60" as="geometry" />
        </mxCell>
        <mxCell id="LvNqyNUecXNwjpv3FJKz-34" value="Sniffer" style="rounded=0;whiteSpace=wrap;html=1;comic=1;fillColor=#dae8fc;strokeColor=#6c8ebf;fontSize=16;fontFamily=Comic Sans MS;" vertex="1" parent="1">
          <mxGeometry x="672" y="601" width="120" height="60" as="geometry" />
        </mxCell>
        <mxCell id="LvNqyNUecXNwjpv3FJKz-35" value="分享" style="rounded=0;whiteSpace=wrap;html=1;comic=1;fillColor=#dae8fc;strokeColor=#6c8ebf;fontSize=16;fontFamily=Comic Sans MS;" vertex="1" parent="1">
          <mxGeometry x="117" y="677" width="120" height="60" as="geometry" />
        </mxCell>
        <mxCell id="LvNqyNUecXNwjpv3FJKz-36" value="图片" style="rounded=0;whiteSpace=wrap;html=1;comic=1;fillColor=#dae8fc;strokeColor=#6c8ebf;fontSize=16;fontFamily=Comic Sans MS;" vertex="1" parent="1">
          <mxGeometry x="257" y="677" width="120" height="60" as="geometry" />
        </mxCell>
        <mxCell id="LvNqyNUecXNwjpv3FJKz-37" value="MRN" style="rounded=0;whiteSpace=wrap;html=1;comic=1;fillColor=#dae8fc;strokeColor=#6c8ebf;fontSize=16;fontFamily=Comic Sans MS;" vertex="1" parent="1">
          <mxGeometry x="396.32" y="677" width="120" height="60" as="geometry" />
        </mxCell>
        <mxCell id="LvNqyNUecXNwjpv3FJKz-38" value="账号" style="rounded=0;whiteSpace=wrap;html=1;comic=1;fillColor=#dae8fc;strokeColor=#6c8ebf;fontSize=16;fontFamily=Comic Sans MS;" vertex="1" parent="1">
          <mxGeometry x="534" y="677" width="120" height="60" as="geometry" />
        </mxCell>
        <mxCell id="LvNqyNUecXNwjpv3FJKz-39" value="Lottie" style="rounded=0;whiteSpace=wrap;html=1;comic=1;fillColor=#dae8fc;strokeColor=#6c8ebf;fontSize=16;fontFamily=Comic Sans MS;" vertex="1" parent="1">
          <mxGeometry x="672" y="677" width="120" height="60" as="geometry" />
        </mxCell>
        <mxCell id="LvNqyNUecXNwjpv3FJKz-40" value="崩溃采集" style="rounded=0;whiteSpace=wrap;html=1;comic=1;fillColor=#dae8fc;strokeColor=#6c8ebf;fontSize=16;fontFamily=Comic Sans MS;" vertex="1" parent="1">
          <mxGeometry x="117" y="755" width="120" height="60" as="geometry" />
        </mxCell>
        <mxCell id="LvNqyNUecXNwjpv3FJKz-41" value="Raptor" style="rounded=0;whiteSpace=wrap;html=1;comic=1;fillColor=#dae8fc;strokeColor=#6c8ebf;fontSize=16;fontFamily=Comic Sans MS;" vertex="1" parent="1">
          <mxGeometry x="257" y="755" width="120" height="60" as="geometry" />
        </mxCell>
        <mxCell id="LvNqyNUecXNwjpv3FJKz-42" value="Retrofit" style="rounded=0;whiteSpace=wrap;html=1;comic=1;fillColor=#dae8fc;strokeColor=#6c8ebf;fontSize=16;fontFamily=Comic Sans MS;" vertex="1" parent="1">
          <mxGeometry x="396.32" y="753" width="120" height="60" as="geometry" />
        </mxCell>
        <mxCell id="LvNqyNUecXNwjpv3FJKz-43" value="KNB" style="rounded=0;whiteSpace=wrap;html=1;comic=1;fillColor=#dae8fc;strokeColor=#6c8ebf;fontSize=16;fontFamily=Comic Sans MS;" vertex="1" parent="1">
          <mxGeometry x="534" y="753" width="120" height="60" as="geometry" />
        </mxCell>
        <mxCell id="LvNqyNUecXNwjpv3FJKz-44" value="Rxjava" style="rounded=0;whiteSpace=wrap;html=1;comic=1;fillColor=#dae8fc;strokeColor=#6c8ebf;fontSize=16;fontFamily=Comic Sans MS;" vertex="1" parent="1">
          <mxGeometry x="672" y="753" width="120" height="60" as="geometry" />
        </mxCell>
      </root>
    </mxGraphModel>
  </diagram>
</mxfile>
